<svg xmlns="http://www.w3.org/2000/svg" xmlns:xlink="http://www.w3.org/1999/xlink" xmlns:lucid="lucid" width="1870.4" height="1323.2"><g transform="translate(1806.3999999999999 0)" lucid:page-tab-id="0_0"><path d="M-1090.04 280h198.45v120h-198.44z" stroke="#000" stroke-width="2" fill="#ffdba9"/><path d="M-940.82 345.1c1.7 0 2.5-2.4 1.3-3.5l-49.2-49.4-49.3 49.5c-1.2 1.1-.4 3.4 1.3 3.4h8.6V390h26.2v-37.4h22.5V390h26.3v-44.9h12.3zm-76.1-48.6h-14.9v26.3l14.9-14.9v-11.4z" stroke="#ffe8c7" fill="#ffe8c7"/><use xlink:href="#a" transform="matrix(1,0,0,1,-1085.0438757305367,285) translate(38.625 58.6)"/><use xlink:href="#b" transform="matrix(1,0,0,1,-1085.0438757305367,285) translate(81.525 58.6)"/><path d="M-1269.07 440h173.65v100h-173.65z" stroke="#000" stroke-width="2" fill="#ffdba9"/><use xlink:href="#c" transform="matrix(1,0,0,1,-1264.0661564685931,445) translate(68.5 48.6)"/><path d="M-990.82 401v19h-191.42v19" stroke="#000" stroke-width="2" fill="none"/><path d="M-989.82 401h-2v-1h2zM-1181.24 440h-2v-1h2z"/><path d="M-1075.42 440h165.9v100h-165.9z" stroke="#000" stroke-width="2" fill="#ffdba9"/><use xlink:href="#d" transform="matrix(1,0,0,1,-1070.420992899032,445) translate(71.525 48.6)"/><path d="M-990.82 401v19h-1.65v19" stroke="#000" stroke-width="2" fill="none"/><path d="M-989.82 401h-2v-1h2zM-991.47 440h-2v-1h2z"/><path d="M-1462.7 440h173.63v100h-173.64z" stroke="#000" stroke-width="2" fill="#ccc"/><path d="M-1341.8 530v-49.92c0-2.24-.8-4.32-2.25-5.92l-18.8-21.2c-.64-.72-1.44-1.28-2.32-1.76-1.28-.72-2.8-1.2-4.32-1.2h-40.47v80h68.16zm-8.9-10.64h-50.4v-5.92h50.4v5.92zm0-14.8h-50.4v-6h50.4v6zm0-14.88h-50.4v-5.92h50.4v5.92zm-50.4-20.72h35.6v5.92h-35.6v-5.92z" stroke="#dedede" fill="#dedede"/><use xlink:href="#e" transform="matrix(1,0,0,1,-1457.7113200381543,445) translate(41.074999999999996 48.6)"/><path d="M-990.82 401v19h-385.07v19" stroke="#000" stroke-width="2" fill="none"/><path d="M-989.82 401h-2v-1h2zM-1374.9 440h-2v-1h2z"/><path d="M-1262.24 580h160v90h-160z" stroke="#000" stroke-width="2" fill="#ccc"/><path d="M-1152.42 660v-43.68c0-1.96-.7-3.78-1.96-5.18l-16.45-18.55c-.56-.64-1.26-1.13-2.03-1.55-1.12-.63-2.45-1.05-3.78-1.05h-35.42v70h59.64zm-7.77-9.3h-44.1v-5.2h44.1v5.2zm0-12.96h-44.1v-5.25h44.1v5.24zm0-13.02h-44.1v-5.18h44.1v5.18zm-44.1-18.13h31.16v5.17h-31.15v-5.18z" stroke="#dedede" fill="#dedede"/><use xlink:href="#f" transform="matrix(1,0,0,1,-1257.2435746838125,585) translate(36.025 43.6)"/><path d="M-1182.24 541v38" stroke="#000" stroke-width="2" fill="none"/><path d="M-1181.24 541h-2v-1h2zM-1181.24 580h-2v-1h2z"/><path d="M-1036.2 580h167.45v95h-167.45z" stroke="#000" stroke-width="2" fill="#ccc"/><path d="M-920.52 665v-46.8c0-2.1-.75-4.05-2.1-5.55l-17.63-19.88c-.6-.67-1.35-1.2-2.17-1.64-1.2-.68-2.63-1.13-4.05-1.13h-37.95v75h63.9zm-8.33-9.98h-47.25v-5.54h47.25V655zm0-13.87h-47.25v-5.63h47.25v5.63zm0-13.95h-47.25v-5.55h47.25v5.55zm-47.25-19.43h33.38v5.56h-33.38v-5.56z" stroke="#dedede" fill="#dedede"/><use xlink:href="#g" transform="matrix(1,0,0,1,-1031.1961945221103,585) translate(47.55 46.1)"/><path d="M-1056.68 541v86.5h19.48" stroke="#000" stroke-width="2" fill="none"/><path d="M-1055.68 541h-2v-1h2zM-1036.2 628.5h-1v-2h1z"/><path d="M-601 440h173.65v95H-601z" stroke="#000" stroke-width="2" fill="#ccc"/><use xlink:href="#h" transform="matrix(1,0,0,1,-596,445) translate(28.599999999999994 46.1)"/><path d="M-990.82 401v19h476.64v19" stroke="#000" stroke-width="2" fill="none"/><path d="M-989.82 401h-2v-1h2zM-513.18 440h-2v-1h2z"/><path d="M-842.1 440h173.66v95H-842.1z" stroke="#000" stroke-width="2" fill="#ffdba9"/><use xlink:href="#i" transform="matrix(1,0,0,1,-837.086504564908,445) translate(67.55 46.1)"/><path d="M-990.82 401v19h235.56v19" stroke="#000" stroke-width="2" fill="none"/><path d="M-989.82 401h-2v-1h2zM-754.26 440h-2v-1h2z"/><path d="M-784.62 1040h138.72v95h-138.72z" stroke="#000" stroke-width="2" fill="#b2b2b2"/><path d="M-733.34 1105.5h36.08c4.65 0 8.4-3.67 8.4-8.33v-36.07c0-4.65-3.75-8.32-8.4-8.32h-36.08c-4.57 0-8.32 3.67-8.32 8.32v36.08c0 4.64 3.75 8.32 8.32 8.32m13.5-35.78l8.25 11.86 5.26-4.43 9.08 11.7h-36.08l13.5-19.13z" stroke="#cdcdcd" fill="#cdcdcd"/><use xlink:href="#j" transform="matrix(1,0,0,1,-779.6240054481129,1045) translate(21.575000000000003 46.1)"/><path d="M-782.1 755h138.73v95H-782.1z" stroke="#000" stroke-width="2" fill="#b2b2b2"/><path d="M-730.8 820.5h36.07c4.65 0 8.4-3.67 8.4-8.33V776.1c0-4.65-3.75-8.33-8.4-8.33h-36.07c-4.58 0-8.33 3.68-8.33 8.33v36.07c0 4.66 3.75 8.33 8.33 8.33m13.5-35.77l8.25 11.85 5.25-4.43 9.07 11.7h-36.07l13.5-19.13z" stroke="#cdcdcd" fill="#cdcdcd"/><use xlink:href="#k" transform="matrix(1,0,0,1,-777.086504564908,760) translate(25.025 46.1)"/><path d="M-784.45 880h138.72v95h-138.72z" stroke="#000" stroke-width="2" fill="#b2b2b2"/><path d="M-733.16 945.5h36.07c4.66 0 8.4-3.67 8.4-8.33V901.1c0-4.65-3.74-8.33-8.4-8.33h-36.06c-4.58 0-8.33 3.68-8.33 8.33v36.07c0 4.66 3.76 8.33 8.34 8.33m13.5-35.77l8.25 11.85 5.24-4.43 9.07 11.7h-36.06l13.5-19.13z" stroke="#cdcdcd" fill="#cdcdcd"/><use xlink:href="#l" transform="matrix(1,0,0,1,-779.4465872328935,885) translate(25.574999999999996 46.1)"/><path d="M-784.62 580h138.72v95h-138.72z" stroke="#000" stroke-width="2" fill="#b2b2b2"/><path d="M-733.34 645.5h36.08c4.65 0 8.4-3.67 8.4-8.33V601.1c0-4.65-3.75-8.33-8.4-8.33h-36.08c-4.57 0-8.32 3.68-8.32 8.33v36.07c0 4.66 3.75 8.33 8.32 8.33m13.5-35.77l8.25 11.85 5.26-4.43 9.08 11.7h-36.08l13.5-19.13z" stroke="#cdcdcd" fill="#cdcdcd"/><use xlink:href="#m" transform="matrix(1,0,0,1,-779.6240054481129,585) translate(18.049999999999997 46.1)"/><path d="M-823.5 536v91.5h37.88" stroke="#000" stroke-width="2" fill="none"/><path d="M-822.5 536h-2v-1h2zM-784.62 628.5h-1v-2h1z"/><path d="M-823.5 536v266.5h40.4" stroke="#000" stroke-width="2" fill="none"/><path d="M-822.5 536h-2v-1h2zM-782.1 803.5h-1v-2h1z"/><path d="M-823.5 536v391.5h38.05" stroke="#000" stroke-width="2" fill="none"/><path d="M-822.5 536h-2v-1h2zM-784.45 928.5h-1v-2h1z"/><path d="M-823.5 536v551.5h37.88" stroke="#000" stroke-width="2" fill="none"/><path d="M-822.5 536h-2v-1h2zM-784.62 1088.5h-1v-2h1z"/><path d="M-1720 237h341v106h-341z" stroke="#000" stroke-opacity="0" stroke-width="2" fill="#fff" fill-opacity="0"/><use xlink:href="#n" transform="matrix(1,0,0,1,-1715,242) translate(35.72222222222223 56)"/><use xlink:href="#o" transform="matrix(1,0,0,1,-1715,242) translate(222.05555555555557 56)"/><path d="M-770 589.1h138.72v95H-770z" stroke="#000" stroke-width="2" fill="#b2b2b2"/><path d="M-718.7 654.6h36.06c4.65 0 8.4-3.68 8.4-8.33V610.2c0-4.65-3.75-8.33-8.4-8.33h-36.07c-4.6 0-8.34 3.68-8.34 8.33v36.07c0 4.65 3.75 8.33 8.33 8.33m13.5-35.78l8.24 11.85 5.25-4.42 9.06 11.7h-36.07l13.5-19.13z" stroke="#cdcdcd" fill="#cdcdcd"/><use xlink:href="#m" transform="matrix(1,0,0,1,-765,594.0999999999999) translate(18.049999999999997 46.1)"/><path d="M-750.36 609.1h138.72v95h-138.72z" stroke="#000" stroke-width="2" fill="#b2b2b2"/><path d="M-699.08 674.6H-663c4.65 0 8.4-3.68 8.4-8.33V630.2c0-4.65-3.75-8.33-8.4-8.33h-36.08c-4.57 0-8.32 3.68-8.32 8.33v36.07c0 4.65 3.75 8.33 8.32 8.33m13.5-35.78l8.25 11.85 5.25-4.42 9.08 11.7h-36.08l13.5-19.13z" stroke="#cdcdcd" fill="#cdcdcd"/><use xlink:href="#m" transform="matrix(1,0,0,1,-745.3600826679856,614.0999999999999) translate(18.049999999999997 46.1)"/><path d="M-730 621.6h138.72v95H-730z" stroke="#000" stroke-width="2" fill="#b2b2b2"/><path d="M-678.7 687.1h36.06c4.65 0 8.4-3.68 8.4-8.33V642.7c0-4.65-3.75-8.33-8.4-8.33h-36.07c-4.6 0-8.34 3.68-8.34 8.33v36.07c0 4.65 3.75 8.33 8.33 8.33m13.5-35.78l8.24 11.85 5.25-4.42 9.06 11.7h-36.07l13.5-19.13z" stroke="#cdcdcd" fill="#cdcdcd"/><use xlink:href="#m" transform="matrix(1,0,0,1,-725,626.5999999999999) translate(18.049999999999997 46.1)"/><path d="M-710 639.1h138.72v95H-710z" stroke="#000" stroke-width="2" fill="#b2b2b2"/><path d="M-658.7 704.6h36.06c4.65 0 8.4-3.68 8.4-8.33V660.2c0-4.65-3.75-8.33-8.4-8.33h-36.07c-4.6 0-8.34 3.68-8.34 8.33v36.07c0 4.65 3.75 8.33 8.33 8.33m13.5-35.78l8.24 11.85 5.25-4.42 9.06 11.7h-36.07l13.5-19.13z" stroke="#cdcdcd" fill="#cdcdcd"/><use xlink:href="#m" transform="matrix(1,0,0,1,-705,644.0999999999999) translate(18.049999999999997 46.1)"/><path d="M-769.72 765H-631v95h-138.72z" stroke="#000" stroke-width="2" fill="#b2b2b2"/><path d="M-718.44 830.5h36.08c4.65 0 8.4-3.67 8.4-8.33V786.1c0-4.65-3.75-8.33-8.4-8.33h-36.08c-4.57 0-8.32 3.68-8.32 8.33v36.07c0 4.66 3.75 8.33 8.32 8.33m13.5-35.77l8.25 11.85 5.26-4.43 9.08 11.7h-36.08l13.5-19.13z" stroke="#cdcdcd" fill="#cdcdcd"/><use xlink:href="#p" transform="matrix(1,0,0,1,-764.7201653359712,770) translate(25.025 35.3)"/><use xlink:href="#q" transform="matrix(1,0,0,1,-764.7201653359712,770) translate(73.975 35.3)"/><use xlink:href="#r" transform="matrix(1,0,0,1,-764.7201653359712,770) translate(26.525 56.9)"/><path d="M-770.18 900h138.72v95h-138.72z" stroke="#000" stroke-width="2" fill="#b2b2b2"/><path d="M-718.9 965.5h36.08c4.65 0 8.4-3.67 8.4-8.33V921.1c0-4.65-3.75-8.33-8.4-8.33h-36.07c-4.57 0-8.32 3.68-8.32 8.33v36.07c0 4.66 3.75 8.33 8.33 8.33m13.5-35.77l8.26 11.85 5.25-4.43 9.08 11.7h-36.07l13.5-19.13z" stroke="#cdcdcd" fill="#cdcdcd"/><use xlink:href="#l" transform="matrix(1,0,0,1,-765.1800413339928,905) translate(25.574999999999996 46.1)"/><path d="M-750.54 917.5h138.72v95h-138.72z" stroke="#000" stroke-width="2" fill="#b2b2b2"/><path d="M-699.26 983h36.08c4.65 0 8.4-3.67 8.4-8.33V938.6c0-4.65-3.75-8.33-8.4-8.33h-36.08c-4.57 0-8.32 3.68-8.32 8.33v36.07c0 4.66 3.75 8.33 8.32 8.33m13.5-35.77l8.25 11.85 5.24-4.43 9.08 11.7h-36.08l13.5-19.13z" stroke="#cdcdcd" fill="#cdcdcd"/><use xlink:href="#l" transform="matrix(1,0,0,1,-745.5401240019784,922.5) translate(25.574999999999996 46.1)"/><path d="M-770 1060h138.72v95H-770z" stroke="#000" stroke-width="2" fill="#b2b2b2"/><path d="M-718.7 1125.5h36.06c4.65 0 8.4-3.67 8.4-8.33v-36.07c0-4.65-3.75-8.32-8.4-8.32h-36.07c-4.6 0-8.34 3.67-8.34 8.32v36.08c0 4.64 3.75 8.32 8.33 8.32m13.5-35.78l8.24 11.86 5.25-4.43 9.06 11.7h-36.07l13.5-19.13z" stroke="#cdcdcd" fill="#cdcdcd"/><use xlink:href="#j" transform="matrix(1,0,0,1,-765,1065) translate(21.575000000000003 46.1)"/><path d="M-748.28 1080h138.72v95h-138.72z" stroke="#000" stroke-width="2" fill="#b2b2b2"/><path d="M-697 1145.5h36.08c4.65 0 8.4-3.67 8.4-8.33v-36.07c0-4.65-3.75-8.32-8.4-8.32H-697c-4.57 0-8.32 3.67-8.32 8.32v36.08c0 4.64 3.75 8.32 8.33 8.32m13.5-35.78l8.26 11.86 5.25-4.43 9.08 11.7H-697l13.5-19.13z" stroke="#cdcdcd" fill="#cdcdcd"/><use xlink:href="#j" transform="matrix(1,0,0,1,-743.2798346640288,1085) translate(21.575000000000003 46.1)"/><path d="M-1036.2 715h167.45v95h-167.45z" stroke="#000" stroke-width="2" fill="#ccc"/><path d="M-920.52 800v-46.8c0-2.1-.75-4.05-2.1-5.55l-17.63-19.88c-.6-.67-1.35-1.2-2.17-1.64-1.2-.68-2.63-1.13-4.05-1.13h-37.95v75h63.9zm-8.33-9.98h-47.25v-5.54h47.25V790zm0-13.87h-47.25v-5.63h47.25v5.63zm0-13.95h-47.25v-5.55h47.25v5.55zm-47.25-19.43h33.38v5.56h-33.38v-5.56z" stroke="#dedede" fill="#dedede"/><use xlink:href="#s" transform="matrix(1,0,0,1,-1031.1961945221103,720) translate(43.05 46.1)"/><path d="M-1056.68 541v221.5h19.48" stroke="#000" stroke-width="2" fill="none"/><path d="M-1055.68 541h-2v-1h2zM-1036.2 763.5h-1v-2h1z"/><path d="M-1036.2 850h167.45v95h-167.45z" stroke="#000" stroke-width="2" fill="#ccc"/><path d="M-920.52 935v-46.8c0-2.1-.75-4.05-2.1-5.55l-17.63-19.88c-.6-.67-1.35-1.2-2.17-1.64-1.2-.68-2.63-1.13-4.05-1.13h-37.95v75h63.9zm-8.33-9.98h-47.25v-5.54h47.25V925zm0-13.87h-47.25v-5.63h47.25v5.63zm0-13.95h-47.25v-5.55h47.25v5.55zm-47.25-19.43h33.38v5.56h-33.38v-5.56z" stroke="#dedede" fill="#dedede"/><use xlink:href="#s" transform="matrix(1,0,0,1,-1031.1961945221103,855) translate(43.05 46.1)"/><path d="M-1056.68 541v356.5h19.48" stroke="#000" stroke-width="2" fill="none"/><path d="M-1055.68 541h-2v-1h2zM-1036.2 898.5h-1v-2h1z"/><defs><path d="M232-93c-1 65-40 97-104 97C67 4 28-28 28-90v-158h33c8 89-33 224 67 224 102 0 64-133 71-224h33v155" id="t"/><path d="M135-143c-3-34-86-38-87 0 15 53 115 12 119 90S17 21 10-45l28-5c4 36 97 45 98 0-10-56-113-15-118-90-4-57 82-63 122-42 12 7 21 19 24 35" id="u"/><path d="M100-194c63 0 86 42 84 106H49c0 40 14 67 53 68 26 1 43-12 49-29l28 8c-11 28-37 45-77 45C44 4 14-33 15-96c1-61 26-98 85-98zm52 81c6-60-76-77-97-28-3 7-6 17-6 28h103" id="v"/><path d="M114-163C36-179 61-72 57 0H25l-1-190h30c1 12-1 29 2 39 6-27 23-49 58-41v29" id="w"/><g id="a"><use transform="matrix(0.05,0,0,0.05,0,0)" xlink:href="#t"/><use transform="matrix(0.05,0,0,0.05,12.950000000000001,0)" xlink:href="#u"/><use transform="matrix(0.05,0,0,0.05,21.950000000000003,0)" xlink:href="#v"/><use transform="matrix(0.05,0,0,0.05,31.950000000000003,0)" xlink:href="#w"/></g><path d="M85-194c31 0 48 13 60 33l-1-100h32l1 261h-30c-2-10 0-23-3-31C134-8 116 4 85 4 32 4 16-35 15-94c0-66 23-100 70-100zm9 24c-40 0-46 34-46 75 0 40 6 74 45 74 42 0 51-32 51-76 0-42-9-74-50-73" id="x"/><path d="M24-231v-30h32v30H24zM24 0v-190h32V0H24" id="y"/><path d="M96-169c-40 0-48 33-48 73s9 75 48 75c24 0 41-14 43-38l32 2c-6 37-31 61-74 61-59 0-76-41-82-99-10-93 101-131 147-64 4 7 5 14 7 22l-32 3c-4-21-16-35-41-35" id="z"/><path d="M59-47c-2 24 18 29 38 22v24C64 9 27 4 27-40v-127H5v-23h24l9-43h21v43h35v23H59v120" id="A"/><path d="M100-194c62-1 85 37 85 99 1 63-27 99-86 99S16-35 15-95c0-66 28-99 85-99zM99-20c44 1 53-31 53-75 0-43-8-75-51-75s-53 32-53 75 10 74 51 75" id="B"/><path d="M179-190L93 31C79 59 56 82 12 73V49c39 6 53-20 64-50L1-190h34L92-34l54-156h33" id="C"/><g id="b"><use transform="matrix(0.05,0,0,0.05,0,0)" xlink:href="#x"/><use transform="matrix(0.05,0,0,0.05,10,0)" xlink:href="#y"/><use transform="matrix(0.05,0,0,0.05,13.949999999999998,0)" xlink:href="#w"/><use transform="matrix(0.05,0,0,0.05,19.9,0)" xlink:href="#v"/><use transform="matrix(0.05,0,0,0.05,29.899999999999995,0)" xlink:href="#z"/><use transform="matrix(0.05,0,0,0.05,38.9,0)" xlink:href="#A"/><use transform="matrix(0.05,0,0,0.05,43.9,0)" xlink:href="#B"/><use transform="matrix(0.05,0,0,0.05,53.900000000000006,0)" xlink:href="#w"/><use transform="matrix(0.05,0,0,0.05,59.85,0)" xlink:href="#C"/></g><g id="c"><use transform="matrix(0.05,0,0,0.05,0,0)" xlink:href="#z"/><use transform="matrix(0.05,0,0,0.05,9,0)" xlink:href="#u"/><use transform="matrix(0.05,0,0,0.05,18,0)" xlink:href="#u"/></g><path d="M24-231v-30h32v30H24zM-9 49c24 4 33-6 33-30v-209h32V24c2 40-23 58-65 49V49" id="D"/><g id="d"><use transform="matrix(0.05,0,0,0.05,0,0)" xlink:href="#D"/><use transform="matrix(0.05,0,0,0.05,3.95,0)" xlink:href="#u"/></g><path d="M117-194c89-4 53 116 60 194h-32v-121c0-31-8-49-39-48C34-167 62-67 57 0H25l-1-190h30c1 10-1 24 2 32 11-22 29-35 61-36" id="E"/><path d="M141 0L90-78 38 0H4l68-98-65-92h35l48 74 47-74h35l-64 92 68 98h-35" id="F"/><path d="M33 0v-38h34V0H33" id="G"/><path d="M106-169C34-169 62-67 57 0H25v-261h32l-1 103c12-21 28-36 61-36 89 0 53 116 60 194h-32v-121c2-32-8-49-39-48" id="H"/><path d="M210-169c-67 3-38 105-44 169h-31v-121c0-29-5-50-35-48C34-165 62-65 56 0H25l-1-190h30c1 10-1 24 2 32 10-44 99-50 107 0 11-21 27-35 58-36 85-2 47 119 55 194h-31v-121c0-29-5-49-35-48" id="I"/><path d="M24 0v-261h32V0H24" id="J"/><g id="e"><use transform="matrix(0.05,0,0,0.05,0,0)" xlink:href="#y"/><use transform="matrix(0.05,0,0,0.05,3.95,0)" xlink:href="#E"/><use transform="matrix(0.05,0,0,0.05,13.949999999999998,0)" xlink:href="#x"/><use transform="matrix(0.05,0,0,0.05,23.95,0)" xlink:href="#v"/><use transform="matrix(0.05,0,0,0.05,33.95,0)" xlink:href="#F"/><use transform="matrix(0.05,0,0,0.05,42.95,0)" xlink:href="#G"/><use transform="matrix(0.05,0,0,0.05,47.95,0)" xlink:href="#H"/><use transform="matrix(0.05,0,0,0.05,57.95,0)" xlink:href="#A"/><use transform="matrix(0.05,0,0,0.05,62.95,0)" xlink:href="#I"/><use transform="matrix(0.05,0,0,0.05,77.9,0)" xlink:href="#J"/></g><g id="f"><use transform="matrix(0.05,0,0,0.05,0,0)" xlink:href="#u"/><use transform="matrix(0.05,0,0,0.05,9,0)" xlink:href="#A"/><use transform="matrix(0.05,0,0,0.05,14,0)" xlink:href="#C"/><use transform="matrix(0.05,0,0,0.05,23,0)" xlink:href="#J"/><use transform="matrix(0.05,0,0,0.05,26.950000000000003,0)" xlink:href="#v"/><use transform="matrix(0.05,0,0,0.05,36.95,0)" xlink:href="#u"/><use transform="matrix(0.05,0,0,0.05,45.95,0)" xlink:href="#G"/><use transform="matrix(0.05,0,0,0.05,50.95,0)" xlink:href="#z"/><use transform="matrix(0.05,0,0,0.05,59.95,0)" xlink:href="#u"/><use transform="matrix(0.05,0,0,0.05,68.95,0)" xlink:href="#u"/></g><path d="M177-190C167-65 218 103 67 71c-23-6-38-20-44-43l32-5c15 47 100 32 89-28v-30C133-14 115 1 83 1 29 1 15-40 15-95c0-56 16-97 71-98 29-1 48 16 59 35 1-10 0-23 2-32h30zM94-22c36 0 50-32 50-73 0-42-14-75-50-75-39 0-46 34-46 75s6 73 46 73" id="K"/><path d="M141-36C126-15 110 5 73 4 37 3 15-17 15-53c-1-64 63-63 125-63 3-35-9-54-41-54-24 1-41 7-42 31l-33-3c5-37 33-52 76-52 45 0 72 20 72 64v82c-1 20 7 32 28 27v20c-31 9-61-2-59-35zM48-53c0 20 12 33 32 33 41-3 63-29 60-74-43 2-92-5-92 41" id="L"/><g id="g"><use transform="matrix(0.05,0,0,0.05,0,0)" xlink:href="#K"/><use transform="matrix(0.05,0,0,0.05,10,0)" xlink:href="#L"/><use transform="matrix(0.05,0,0,0.05,20,0)" xlink:href="#I"/><use transform="matrix(0.05,0,0,0.05,34.95,0)" xlink:href="#v"/><use transform="matrix(0.05,0,0,0.05,44.95,0)" xlink:href="#G"/><use transform="matrix(0.05,0,0,0.05,49.95,0)" xlink:href="#D"/><use transform="matrix(0.05,0,0,0.05,53.900000000000006,0)" xlink:href="#u"/></g><path d="M233-177c-1 41-23 64-60 70L243 0h-38l-65-103H63V0H30v-248c88 3 205-21 203 71zM63-129c60-2 137 13 137-47 0-61-80-42-137-45v92" id="M"/><path d="M30 0v-248h187v28H63v79h144v27H63v87h162V0H30" id="N"/><path d="M205 0l-28-72H64L36 0H1l101-248h38L239 0h-34zm-38-99l-47-123c-12 45-31 82-46 123h93" id="O"/><path d="M30-248c118-7 216 8 213 122C240-48 200 0 122 0H30v-248zM63-27c89 8 146-16 146-99s-60-101-146-95v194" id="P"/><path d="M240 0l2-218c-23 76-54 145-80 218h-23L58-218 59 0H30v-248h44l77 211c21-75 51-140 76-211h43V0h-30" id="Q"/><g id="h"><use transform="matrix(0.05,0,0,0.05,0,0)" xlink:href="#M"/><use transform="matrix(0.05,0,0,0.05,12.950000000000001,0)" xlink:href="#N"/><use transform="matrix(0.05,0,0,0.05,24.950000000000003,0)" xlink:href="#O"/><use transform="matrix(0.05,0,0,0.05,36.95,0)" xlink:href="#P"/><use transform="matrix(0.05,0,0,0.05,49.900000000000006,0)" xlink:href="#Q"/><use transform="matrix(0.05,0,0,0.05,64.85000000000001,0)" xlink:href="#N"/><use transform="matrix(0.05,0,0,0.05,76.85000000000001,0)" xlink:href="#G"/><use transform="matrix(0.05,0,0,0.05,81.85000000000001,0)" xlink:href="#I"/><use transform="matrix(0.05,0,0,0.05,96.80000000000001,0)" xlink:href="#x"/></g><g id="i"><use transform="matrix(0.05,0,0,0.05,0,0)" xlink:href="#y"/><use transform="matrix(0.05,0,0,0.05,3.95,0)" xlink:href="#I"/><use transform="matrix(0.05,0,0,0.05,18.900000000000002,0)" xlink:href="#K"/></g><path d="M115-194c55 1 70 41 70 98S169 2 115 4C84 4 66-9 55-30l1 105H24l-1-265h31l2 30c10-21 28-34 59-34zm-8 174c40 0 45-34 45-75s-6-73-45-74c-42 0-51 32-51 76 0 43 10 73 51 73" id="R"/><g id="j"><use transform="matrix(0.05,0,0,0.05,0,0)" xlink:href="#A"/><use transform="matrix(0.05,0,0,0.05,5,0)" xlink:href="#v"/><use transform="matrix(0.05,0,0,0.05,15,0)" xlink:href="#w"/><use transform="matrix(0.05,0,0,0.05,20.95,0)" xlink:href="#w"/><use transform="matrix(0.05,0,0,0.05,26.899999999999995,0)" xlink:href="#L"/><use transform="matrix(0.05,0,0,0.05,36.9,0)" xlink:href="#y"/><use transform="matrix(0.05,0,0,0.05,40.85,0)" xlink:href="#E"/><use transform="matrix(0.05,0,0,0.05,50.85,0)" xlink:href="#G"/><use transform="matrix(0.05,0,0,0.05,55.85,0)" xlink:href="#R"/><use transform="matrix(0.05,0,0,0.05,65.85,0)" xlink:href="#E"/><use transform="matrix(0.05,0,0,0.05,75.85,0)" xlink:href="#K"/></g><g id="k"><use transform="matrix(0.05,0,0,0.05,0,0)" xlink:href="#K"/><use transform="matrix(0.05,0,0,0.05,10,0)" xlink:href="#v"/><use transform="matrix(0.05,0,0,0.05,20,0)" xlink:href="#I"/><use transform="matrix(0.05,0,0,0.05,34.95,0)" xlink:href="#u"/><use transform="matrix(0.05,0,0,0.05,43.95,0)" xlink:href="#G"/><use transform="matrix(0.05,0,0,0.05,48.95,0)" xlink:href="#R"/><use transform="matrix(0.05,0,0,0.05,58.95,0)" xlink:href="#E"/><use transform="matrix(0.05,0,0,0.05,68.95,0)" xlink:href="#K"/></g><g id="l"><use transform="matrix(0.05,0,0,0.05,0,0)" xlink:href="#v"/><use transform="matrix(0.05,0,0,0.05,10,0)" xlink:href="#I"/><use transform="matrix(0.05,0,0,0.05,24.950000000000003,0)" xlink:href="#B"/><use transform="matrix(0.05,0,0,0.05,34.95,0)" xlink:href="#D"/><use transform="matrix(0.05,0,0,0.05,38.900000000000006,0)" xlink:href="#y"/><use transform="matrix(0.05,0,0,0.05,42.85000000000001,0)" xlink:href="#G"/><use transform="matrix(0.05,0,0,0.05,47.85000000000001,0)" xlink:href="#R"/><use transform="matrix(0.05,0,0,0.05,57.85,0)" xlink:href="#E"/><use transform="matrix(0.05,0,0,0.05,67.85000000000001,0)" xlink:href="#K"/></g><g id="m"><use transform="matrix(0.05,0,0,0.05,0,0)" xlink:href="#R"/><use transform="matrix(0.05,0,0,0.05,10,0)" xlink:href="#J"/><use transform="matrix(0.05,0,0,0.05,13.949999999999998,0)" xlink:href="#L"/><use transform="matrix(0.05,0,0,0.05,23.95,0)" xlink:href="#C"/><use transform="matrix(0.05,0,0,0.05,32.95,0)" xlink:href="#v"/><use transform="matrix(0.05,0,0,0.05,42.95,0)" xlink:href="#w"/><use transform="matrix(0.05,0,0,0.05,48.900000000000006,0)" xlink:href="#u"/><use transform="matrix(0.05,0,0,0.05,57.900000000000006,0)" xlink:href="#G"/><use transform="matrix(0.05,0,0,0.05,62.900000000000006,0)" xlink:href="#R"/><use transform="matrix(0.05,0,0,0.05,72.9,0)" xlink:href="#E"/><use transform="matrix(0.05,0,0,0.05,82.9,0)" xlink:href="#K"/></g><path d="M24-248c120-7 223 5 221 122C244-46 201 0 124 0H24v-248zM76-40c74 7 117-18 117-86 0-67-45-88-117-82v168" id="S"/><path d="M25-224v-37h50v37H25zM25 0v-190h50V0H25" id="T"/><path d="M135-150c-39-12-60 13-60 57V0H25l-1-190h47c2 13-1 29 3 40 6-28 27-53 61-41v41" id="U"/><path d="M185-48c-13 30-37 53-82 52C43 2 14-33 14-96s30-98 90-98c62 0 83 45 84 108H66c0 31 8 55 39 56 18 0 30-7 34-22zm-45-69c5-46-57-63-70-21-2 6-4 13-4 21h74" id="V"/><path d="M190-63c-7 42-38 67-86 67-59 0-84-38-90-98-12-110 154-137 174-36l-49 2c-2-19-15-32-35-32-30 0-35 28-38 64-6 74 65 87 74 30" id="W"/><path d="M115-3C79 11 28 4 28-45v-112H4v-33h27l15-45h31v45h36v33H77v99c-1 23 16 31 38 25v30" id="X"/><path d="M110-194c64 0 96 36 96 99 0 64-35 99-97 99-61 0-95-36-95-99 0-62 34-99 96-99zm-1 164c35 0 45-28 45-65 0-40-10-65-43-65-34 0-45 26-45 65 0 36 10 65 43 65" id="Y"/><path d="M123 10C108 53 80 86 19 72V37c35 8 53-11 59-39L3-190h52l48 148c12-52 28-100 44-148h51" id="Z"/><g id="n"><use transform="matrix(0.1111111111111111,0,0,0.1111111111111111,0,0)" xlink:href="#S"/><use transform="matrix(0.1111111111111111,0,0,0.1111111111111111,28.777777777777775,0)" xlink:href="#T"/><use transform="matrix(0.1111111111111111,0,0,0.1111111111111111,39.888888888888886,0)" xlink:href="#U"/><use transform="matrix(0.1111111111111111,0,0,0.1111111111111111,55.44444444444444,0)" xlink:href="#V"/><use transform="matrix(0.1111111111111111,0,0,0.1111111111111111,77.66666666666666,0)" xlink:href="#W"/><use transform="matrix(0.1111111111111111,0,0,0.1111111111111111,99.88888888888889,0)" xlink:href="#X"/><use transform="matrix(0.1111111111111111,0,0,0.1111111111111111,113.11111111111111,0)" xlink:href="#Y"/><use transform="matrix(0.1111111111111111,0,0,0.1111111111111111,137.44444444444446,0)" xlink:href="#U"/><use transform="matrix(0.1111111111111111,0,0,0.1111111111111111,153,0)" xlink:href="#Z"/></g><g id="o"><use transform="matrix(0.1111111111111111,0,0,0.1111111111111111,0,0)" xlink:href="#X"/><use transform="matrix(0.1111111111111111,0,0,0.1111111111111111,13.222222222222221,0)" xlink:href="#U"/><use transform="matrix(0.1111111111111111,0,0,0.1111111111111111,28.777777777777775,0)" xlink:href="#V"/><use transform="matrix(0.1111111111111111,0,0,0.1111111111111111,51,0)" xlink:href="#V"/></g><g id="p"><use transform="matrix(0.05,0,0,0.05,0,0)" xlink:href="#K"/><use transform="matrix(0.05,0,0,0.05,10,0)" xlink:href="#v"/><use transform="matrix(0.05,0,0,0.05,20,0)" xlink:href="#I"/><use transform="matrix(0.05,0,0,0.05,34.95,0)" xlink:href="#u"/></g><g id="q"><use transform="matrix(0.05,0,0,0.05,0,0)" xlink:href="#L"/><use transform="matrix(0.05,0,0,0.05,10,0)" xlink:href="#E"/><use transform="matrix(0.05,0,0,0.05,20,0)" xlink:href="#x"/></g><g id="r"><use transform="matrix(0.05,0,0,0.05,0,0)" xlink:href="#H"/><use transform="matrix(0.05,0,0,0.05,10,0)" xlink:href="#v"/><use transform="matrix(0.05,0,0,0.05,20,0)" xlink:href="#L"/><use transform="matrix(0.05,0,0,0.05,30,0)" xlink:href="#w"/><use transform="matrix(0.05,0,0,0.05,35.95,0)" xlink:href="#A"/><use transform="matrix(0.05,0,0,0.05,40.95,0)" xlink:href="#G"/><use transform="matrix(0.05,0,0,0.05,45.95,0)" xlink:href="#R"/><use transform="matrix(0.05,0,0,0.05,55.95,0)" xlink:href="#E"/><use transform="matrix(0.05,0,0,0.05,65.95,0)" xlink:href="#K"/></g><g id="s"><use transform="matrix(0.05,0,0,0.05,0,0)" xlink:href="#v"/><use transform="matrix(0.05,0,0,0.05,10,0)" xlink:href="#E"/><use transform="matrix(0.05,0,0,0.05,20,0)" xlink:href="#K"/><use transform="matrix(0.05,0,0,0.05,30,0)" xlink:href="#y"/><use transform="matrix(0.05,0,0,0.05,33.95,0)" xlink:href="#E"/><use transform="matrix(0.05,0,0,0.05,43.95,0)" xlink:href="#v"/><use transform="matrix(0.05,0,0,0.05,53.95,0)" xlink:href="#G"/><use transform="matrix(0.05,0,0,0.05,58.95,0)" xlink:href="#D"/><use transform="matrix(0.05,0,0,0.05,62.900000000000006,0)" xlink:href="#u"/></g></defs></g></svg>